<svg xmlns="http://www.w3.org/2000/svg" viewBox="0 0 256 256" role="img" aria-label="Oatty icon">
    <g transform="translate(24,24)">
        <rect x="0" y="0" width="208" height="208" rx="44" fill="none" stroke="#5DA3F4" stroke-width="14"/>
        <rect x="12" y="20" width="184" height="18" rx="9" fill="#5DA3F4" opacity="0.18"/>
        <path d="M104 70 c-24.3 0-44 19.7-44 44s19.7 44 44 44 s44-19.7 44-44s-19.7-44-44-44z m0 18 c14.4 0 26 11.6 26 26s-11.6 26-26 26 s-26-11.6-26-26s11.6-26 26-26z"
              transform="translate(104 95) scale(1.727273) translate(-104 -114) translate(0 6)" fill="#e8edf7" opacity="0.97"/>
        <path d="M60 94 L90 108 L60 122 L60 114 L76 108 L60 102 Z" fill="#5DA3F4"/>
        <rect x="128" y="146" width="54" height="12" rx="3" fill="#5DA3F4" opacity="0.95"/>
    </g>
</svg>
